<?xml version="1.0" encoding="utf-8"?>
<!-- Generator: Adobe Illustrator 21.0.0, SVG Export Plug-In . SVG Version: 6.00 Build 0)  -->
<svg version="1.1" id="Layer_1" xmlns="http://www.w3.org/2000/svg" xmlns:xlink="http://www.w3.org/1999/xlink" x="0px" y="0px"
	 viewBox="0 0 512 512" style="enable-background:new 0 0 512 512;" xml:space="preserve">
<g>
	<path d="M404.8,149.4C404.8,66.9,337.9,0,255.4,0S106,66.9,106,149.4c0,49.9,24.5,94.1,62,121.2l-0.5,0.2
		c-26.9,11.4-51.1,27.7-71.9,48.5c-20.8,20.8-37,45-48.4,72c-11.1,26.4-17.1,54.4-17.7,83.2c-0.1,2.7,2.1,4.9,4.8,4.9h36.1
		c2.6,0,4.8-2.1,4.8-4.7c1.2-46.5,19.8-90.1,52.8-123.1c34-34.2,79.2-52.9,127.4-52.9C337.9,298.8,404.8,231.9,404.8,149.4z
		 M255.4,253c-57.2,0-103.6-46.4-103.6-103.6S198.1,45.8,255.4,45.8S359,92.2,359,149.4S312.6,253,255.4,253z M318.6,386.1h159
		c2.7,0,4.8-2.2,4.8-4.8v-33.7c0-2.7-2.2-4.8-4.8-4.8H371.3l28.4-36.2c0.7-0.8,1-1.9,1-3c0-2.7-2.2-4.8-4.8-4.8h-43.7
		c-3,0-5.7,1.4-7.6,3.7l-41.3,52.5c-2.7,3.4-4.1,7.6-4.1,11.9C299.3,377.5,308,386.1,318.6,386.1z M463.2,424.7h-159
		c-2.7,0-4.8,2.2-4.8,4.8v33.7c0,2.7,2.2,4.8,4.8,4.8h106.3L382,504.2c-0.7,0.8-1,1.9-1,3c0,2.7,2.2,4.8,4.8,4.8h43.7
		c3,0,5.7-1.4,7.6-3.7l41.3-52.5c2.7-3.4,4.1-7.6,4.1-11.9C482.5,433.3,473.8,424.7,463.2,424.7z"/>
</g>
</svg>
